<svg width="18.77px" height="22.5px" viewBox="0 0 99.0242 118.78354" version="1.1" xmlns="http://www.w3.org/2000/svg">
  <g transform="translate(-56.132568,-90.792861)">
    <path d="m 102.34979,189.468 h -7.246064 v -12.16378 h 7.246064 V 189.468" style="fill:#ffffff;fill-opacity:1;fill-rule:nonzero;stroke:#000000;stroke-width:2.035;stroke-dasharray:none;stroke-opacity:1" />
    <path d="m 109.30751,189.21112 h 7.24606 v -12.16378 h -7.24606 v 12.16378" style="fill:#ffffff;fill-opacity:1;fill-rule:nonzero;stroke:#000000;stroke-width:2.035;stroke-dasharray:none;stroke-opacity:1" />
    <path d="m 112.51502,142.3352 c 0.0705,-6.57225 0.0635,-31.79939 -0.10936,-37.40503 -0.35278,-7.471837 -3.25967,-13.119809 -6.75923,-13.119809 -3.50308,0 -6.40997,5.647972 -6.766276,13.144499 -0.165805,5.58095 -0.172861,30.80809 -0.105833,37.38034 l -41.112725,25.20244 -0.511528,0.30339 v 8.62895 l 33.81728,-10.54806 h 8.325556 c 0.130528,3.25614 0.275167,6.49111 0.419806,9.73314 0.229306,5.05531 0.44803,10.0965 0.63853,15.16239 l -8.727725,10.21997 v 6.65339 l 14.022915,-9.2075 14.01939,9.2075 v -6.65339 l -8.72419,-10.21997 c 0.19403,-5.30225 0.42686,-10.59039 0.66322,-15.89264 0.13758,-2.99508 0.26811,-5.99369 0.39158,-9.00289 h 8.46667 l 32.29681,10.1212 1.37936,0.44097 v -8.64306 L 112.51502,142.3352" style="fill:#ffffff;fill-opacity:1;fill-rule:nonzero;stroke:#000000;stroke-width:2.035;stroke-dasharray:none;stroke-opacity:1" />
  </g>
</svg>
