<svg width="27.12px" height="30px" viewBox="0 0 101.491 112.36017" version="1.1" xmlns="http://www.w3.org/2000/svg">
  <g transform="translate(-54.820248,-93.176597)">
    <path d="m 121.67315,149.42095 v -18.96181 h 4.6108 v 18.96181 h -4.6108" style="fill:#ffffff;fill-opacity:1;fill-rule:nonzero;stroke:#000000;stroke-width:2.035;stroke-dasharray:none;stroke-opacity:0.917647" />
    <path d="m 84.846673,149.42095 h 4.610806 v -18.96181 h -4.610806 v 18.96181" style="fill:#ffffff;fill-opacity:1;fill-rule:nonzero;stroke:#000000;stroke-width:2.035;stroke-dasharray:none;stroke-opacity:0.917647" />
    <path d="m 137.14598,160.77686 v -17.526 h 4.60728 v 17.526 h -4.60728" style="fill:#ffffff;fill-opacity:1;fill-rule:nonzero;stroke:#000000;stroke-width:2.035;stroke-dasharray:none;stroke-opacity:0.917647" />
    <path d="m 69.377366,160.77686 h 4.610806 v -17.526 h -4.610806 v 17.526" style="fill:#ffffff;fill-opacity:1;fill-rule:nonzero;stroke:#000000;stroke-width:2.035;stroke-dasharray:none;stroke-opacity:0.917647" />
    <path d="m 112.3069,154.40922 11.69105,2.77284 31.04092,12.81994 -1.13947,-7.60941 -41.76536,-35.54237 c -0.15875,-5.0165 -0.39864,-9.8813 -0.77259,-14.10758 -1.73919,-19.558002 -5.79614,-18.542002 -5.79614,-18.542002 0,0 -4.05694,-1.016 -5.792608,18.542002 -0.377473,4.22628 -0.620889,9.09108 -0.776112,14.10758 l -41.768891,35.54237 -1.135945,7.60941 31.040919,-12.81994 11.691056,-2.77284 c 0.08819,6.51228 0.22225,10.91848 0.22225,10.91848 0,0 0.186973,8.98172 3.002141,22.88117 l -14.128752,11.33475 v 4.75544 l 17.176752,-3.38667 c 0.16933,0.61031 0.77258,0.61031 0.93839,0 l 17.17675,3.38667 v -4.75544 l -14.12522,-11.33475 c 2.81516,-13.89945 2.99861,-22.88117 2.99861,-22.88117 0,0 0.13405,-4.4062 0.22225,-10.91848" style="fill:#ffffff;fill-opacity:1;fill-rule:nonzero;stroke:#000000;stroke-width:2.035;stroke-dasharray:none;stroke-opacity:0.917647" />
  </g>
</svg>
