<svg width="19.24px" height="22.5px" viewBox="0 0 95.515289 111.80084" version="1.1" xmlns="http://www.w3.org/2000/svg">
  <g transform="translate(47.7576, 55.9004) scale(0.0933) rotate(45) translate(-512, -512)">
    <path d="M425.5232 440.86272c-4.37248-5.98016-15.06304-28.59008-11.776-34.92864 8.20224 0.02048 27.86304 9.04192 34.39616 14.5408-19.67104 5.31456-16.61952-1.86368-22.62016 20.38784z" style="fill:#ffffff;fill-opacity:1;stroke:#000000;stroke-width:4.07;stroke-dasharray:none;stroke-opacity:0.917647" />
    <path d="M503.51104 497.70496c-4.13696 5.85728-16.03584 10.61888-21.504 7.59808-2.85696-1.59744-52.51072-53.0944-54.25152-62.23872-0.5632-9.728 9.216-21.67808 22.60992-19.78368 2.7648 0.37888 14.68416 8.26368 16.51712 9.59488 9.44128 6.85056 34.42688 29.8496 42.38336 39.43424 9.09312 9.96352-5.2224 24.61696-5.75488 25.3952zM121.37472 917.4528c-4.95616-4.54656-17.22368-14.8992-14.91968-22.23104 11.33568-14.8992 34.36544-34.73408 48.44544-48.81408 37.59104-37.61152 325.75488-325.24288 333.37344-328.77568 3.0208 1.3824 50.0224 40.57088 53.64736 44.77952-5.7344 7.15776-47.91296 45.30176-58.05056 54.69184l-115.9168 107.63264c-19.10784 17.75616-39.3728 35.31776-57.78432 53.53472l-13.44512-13.79328L145.6128 889.2928l7.45472 8.92928c-5.03808 4.864-25.0368 16.97792-31.6928 19.23072zM522.71104 482.73408c5.87776-8.00768 173.824-176.22016 185.55904-187.99616 31.29344-31.49824 63.61088-62.59712 94.40256-94.43328 9.09312-9.39008 90.0608-91.91424 93.70624-92.83584 7.5264 0.65536 16.40448 11.24352 21.1456 17.5104-1.3312 4.28032-13.74208 25.088-17.02912 28.30336l-16.10752-14.00832-117.7088 147.59936c1.09568 4.47488 14.6432 12.72832 17.08032 18.60608L567.63392 537.3952l-44.92288-54.66112z" style="fill:#ffffff;fill-opacity:1;stroke:#000000;stroke-width:4.07;stroke-dasharray:none;stroke-opacity:0.917647" />
    <path d="M297.25696 768.01024l10.05568 11.15136c-5.31456 6.99392-146.87232 116.18304-151.7568 117.7088l-6.26688-7.72096c2.41664-2.68288 142.52032-118.08768 147.968-121.1392zM888.91392 146.57536l10.3936 9.41056c-7.4752 11.95008-18.7904 25.40544-27.50464 36.84352-9.28768 12.19584-18.76992 24.18688-28.0576 36.4032-8.45824 11.15136-51.46624 67.19488-58.05056 73.216l-12.04224-12.6976 115.26144-143.17568zM722.97472 710.36928l-6.72768 7.45472c-42.30144-38.144-83.42528-80.2816-120.53504-113.41824l-80.88576-70.17472c-9.1648-7.74144-19.92704-14.68416-28.39552-22.9376 23.808-10.35264 22.15936-12.30848 29.26592-31.85664l46.16192 55.15264c15.86176 18.80064 32.45056 38.17472 49.4592 55.8592l111.65696 119.92064zM668.91776 809.37984c-5.13024-2.64192-10.88512-8.73472-11.59168-13.88544 2.63168-7.86432 63.51872-75.71456 73.14432-84.49024 19.15904-17.48992 44.05248-41.41056 64.1024-57.40544 10.496-8.38656 19.54816 9.55392 19.49696 10.04544-1.98656 3.81952-134.22592 136.9088-145.152 145.73568zM670.53568 811.99104L780.0832 701.52192c8.02816-7.9872 29.56288-31.32416 37.3248-36.18816l4.37248 4.47488-70.89152 74.74176c-12.41088 12.16512-25.12896 24.14592-37.6832 36.20864-8.83712 8.48896-29.12256 29.53216-37.76512 35.21536l-4.90496-3.98336z" style="fill:#ffffff;fill-opacity:1;stroke:#000000;stroke-width:4.07;stroke-dasharray:none;stroke-opacity:0.917647" />
  </g>
</svg>