<svg width="20.34px" height="22.5px" viewBox="18.583466 26.049693 31.381002 44.251610" version="1.1" xmlns="http://www.w3.org/2000/svg">
  <g transform="translate(-54.820248,-93.176597)">
    <path d="m 102.537904,150.84992 c 0,0 0.43731,0.21776 -3.11551,-2.79448 -3.55293,-3.01224 -3.55293,-4.14647 -4.31822,-6.49953 -0.76529,-2.35068 -2.02236,-9.89193 -2.62352,-14.97541 -0.41954,-3.54826 -1.90345,-5.86917 -2.76226,-6.9498 -0.32092,-0.40441 -0.93309,-0.40441 -1.25401,0 -0.85881,1.08063 -2.34272,3.40154 -2.76226,6.9498 -0.60116,5.08348 -1.85823,12.62473 -2.62352,14.97541 -0.76529,2.35306 -0.76529,3.48729 -4.31822,6.49953 -3.55293,3.01224 -3.11551,2.79448 -3.11551,2.79448 0,0 -2.24116,1.74897 -2.24116,5.95951 l 10.989252,2.29525 0.10922,2.29525 1.03909,0.38304 v 1.69493 h 3.55293 3.55294 v -1.69493 l 1.03909,-0.38304 0.10922,-2.29525 10.98926,-2.29525 c 0,-4.21054 -2.24117,-5.95951 -2.24117,-5.95951" style="fill:#ffffff;fill-opacity:1;fill-rule:nonzero;stroke:#000000;stroke-width:2.035;stroke-dasharray:none;stroke-opacity:1" />
  </g>
</svg>
