<svg width="17.72px" height="22.5px" viewBox="0 0 82.867996 105.2431" version="1.1" xmlns="http://www.w3.org/2000/svg">
  <g transform="translate(-66.995008,-95.202717)">
    <path d="m 147.11822,155.50016 c -0.81597,0 -1.47743,2.153 -1.47743,2.84832 l 0.25788,7.48701 -25.31886,-18.1229 c 0,0 -7.02028,-23.62694 -7.42527,-32.67217 -0.40499,-9.04557 -4.72546,-17.144645 -4.72546,-17.144645 0,0 -4.32011,8.099075 -4.7251,17.144645 -0.40535,9.04523 -7.425623,32.67217 -7.425623,32.67217 l -25.31851,18.1229 0.25788,-7.48701 c 0,-0.69532 -0.661811,-2.84832 -1.477786,-2.84832 -0.815975,0 -1.477433,2.153 -1.477433,2.84832 l 0.609247,17.67876 v 0.30692 h 0.01058 l 0.0025,0.0727 h 1.710619 l 0.03986,-1.15253 H 98.16854 l 0.540103,9.72115 -12.336993,8.77358 v 5.42925 h 12.007851 l 2.830339,-2.86455 2.32269,2.86455 h 9.79346 l 2.32234,-2.86455 2.83069,2.86455 h 12.00749 v -5.42925 l -12.33664,-8.77358 0.53975,-9.72115 h 27.53361 l 0.0395,1.15253 h 1.71097 l 0.002,-0.0727 h 0.0109 v -0.30833 l 0.6089,-17.67735 c 0,-0.69532 -0.66146,-2.84832 -1.47744,-2.84832" style="fill:#ffffff;fill-opacity:1;fill-rule:nonzero;stroke:#000000;stroke-width:2.535;stroke-dasharray:none;stroke-opacity:1" />
  </g>
</svg>
