<svg width="17.68px" height="12.15px" viewBox="0 0 126.528 86.986176" version="1.1" xmlns="http://www.w3.org/2000/svg">
  <g transform="translate(-38.620087,-97.622042)">
    <path d="m 155.41987,123.60941 c -14.83783,0 -29.67919,0 -44.52056,0 0.45156,-9.23995 -1.74272,-18.06857 -5.40455,-21.62457 h 8.94997 c 0.91017,0 1.64747,-0.73766 1.64747,-1.64747 0,-0.909817 -0.7373,-1.647828 -1.64747,-1.647828 H 89.319896 c -0.910167,0 -1.647473,0.738011 -1.647473,1.647828 0,0.90981 0.737306,1.64747 1.647473,1.64747 h 8.949972 c -3.661833,3.556 -5.856111,12.38462 -5.404555,21.62457 -14.841362,0 -29.682725,0 -44.520559,0 -4.783667,0 -8.657167,2.93864 -8.657167,6.56273 0,3.62408 3.824111,7.22171 8.572501,7.91069 15.345834,2.0507 30.614057,3.21698 45.875225,3.51402 l 1.848555,25.77183 c -3.548944,0.10901 -7.094361,0.30974 -10.615084,0.63147 -3.661833,0.31644 -6.611056,2.76578 -6.611056,5.32765 0,2.56469 2.973917,4.64256 6.642806,4.64256 3.788834,0 7.581195,0 11.370029,0 0.479778,3.24202 2.663472,5.57036 5.111747,5.57036 2.45181,0 4.63198,-2.32834 5.11175,-5.57036 3.78884,0 7.5812,0 11.37356,0 3.66536,0 6.63928,-2.07787 6.63928,-4.64256 0,-2.56187 -2.94922,-5.01121 -6.61106,-5.32765 -3.52072,-0.30445 -7.06614,-0.50518 -10.61508,-0.61948 l 1.84855,-25.78382 c 15.26117,-0.29704 30.52939,-1.46332 45.87523,-3.51402 4.74839,-0.68898 8.57603,-4.28661 8.57603,-7.91069 0,-3.62409 -3.87703,-6.56273 -8.6607,-6.56273" style="fill:#ffffff;fill-opacity:1;fill-rule:nonzero;stroke:#000000;stroke-width:2.135;stroke-dasharray:none;stroke-opacity:1" />
  </g>
</svg>
