<svg xmlns="http://www.w3.org/2000/svg" width="18.77px" height="22.5px" viewBox="0 0 88.89 122.88">
  <ellipse cx="44.804626" cy="44.335548" rx="43.245953" ry="44.335548" fill="#ffffff" />
  <path d="m 49.21,3.75 c 7.21,6.6 12.43,13.57 15.81,20.94 3.47,7.56 5,15.54 4.76,23.98 -0.23,7.81 -1.99,16.01 -5.15,24.61 -3.12,8.48 -7.6,17.36 -13.32,26.68 h 2.71 c 5.33,-7.22 12.54,-18.3 18.21,-24.62 1.9,-2.18 3.58,-4.37 5.04,-6.55 1.51,-2.25 2.78,-4.5 3.85,-6.74 1.09,-2.3 1.96,-4.57 2.61,-6.82 0.68,-2.33 1.13,-4.63 1.38,-6.88 0.55,-4.96 0.11,-9.73 -1.09,-14.19 -1.3,-4.81 -3.49,-9.25 -6.3,-13.18 C 74.69,16.75 70.96,13.13 66.86,10.31 62.7,7.44 58.17,5.4 53.63,4.37 52.9,4.21 52.1,4.07 51.26,3.96 50.6,3.88 49.92,3.81 49.21,3.75 Z m -29.61,75.88 6.46,8.7 c -2.16,-3.02 -4.34,-6 -6.46,-8.7 z m 16.58,33.05 h 16.86 c 0.4,0 0.77,0.16 1.03,0.43 0.27,0.27 0.43,0.63 0.43,1.03 v 7.27 c 0,0.4 -0.16,0.77 -0.43,1.03 -0.26,0.27 -0.63,0.43 -1.03,0.43 H 36.18 c -0.4,0 -0.77,-0.16 -1.03,-0.43 -0.26,-0.26 -0.43,-0.63 -0.43,-1.03 v -7.27 c 0,-0.4 0.16,-0.77 0.43,-1.03 0.26,-0.27 0.62,-0.43 1.03,-0.43 z M 37.1,99.96 C 31.02,90 26.46,80.66 23.41,71.88 20.32,62.97 18.78,54.64 18.8,46.81 c 0.02,-8.31 1.76,-16.02 5.23,-23.23 3.37,-7 8.36,-13.51 14.96,-19.6 -0.38,0.05 -0.75,0.1 -1.11,0.16 -0.58,0.09 -1.15,0.2 -1.69,0.32 -4.59,1.01 -9.3,3.04 -13.67,5.93 -4.19,2.76 -8.05,6.31 -11.19,10.49 -2.83,3.78 -5.07,8.08 -6.4,12.79 -1.22,4.32 -1.69,8.99 -1.15,13.92 0.24,2.25 0.69,4.56 1.37,6.92 0.65,2.28 1.52,4.59 2.62,6.95 1.07,2.29 2.35,4.61 3.87,6.96 1.47,2.27 3.16,4.58 5.1,6.91 l 0.11,0.13 18.19,24.5 z M 43.66,0.09 C 43.83,0.03 44.01,0 44.2,0 c 0.18,0 0.37,0.02 0.54,0.07 h 0.31 c 1.72,-0.01 3.45,0.06 5.07,0.21 1.55,0.14 3.01,0.35 4.29,0.64 4.96,1.12 9.9,3.34 14.42,6.45 4.45,3.06 8.5,6.98 11.77,11.55 3.05,4.27 5.44,9.1 6.85,14.34 1.31,4.85 1.78,10.06 1.18,15.47 -0.27,2.45 -0.76,4.95 -1.5,7.47 -0.71,2.44 -1.64,4.89 -2.82,7.37 -1.12,2.36 -2.47,4.73 -4.07,7.12 -1.54,2.31 -3.31,4.62 -5.31,6.93 l -18.61,25.17 c -0.08,0.11 -0.17,0.2 -0.26,0.29 -0.06,0.05 -0.12,0.1 -0.19,0.14 v 5.45 c 0,0.33 -0.13,0.63 -0.35,0.84 -0.22,0.22 -0.52,0.35 -0.84,0.35 H 34.2 c -0.33,0 -0.63,-0.13 -0.84,-0.35 -0.22,-0.22 -0.35,-0.52 -0.35,-0.84 v -5.56 c -0.06,-0.05 -0.11,-0.1 -0.16,-0.15 -0.08,-0.09 -0.15,-0.18 -0.22,-0.28 L 14,77.59 C 11.97,75.14 10.19,72.72 8.64,70.31 7.04,67.83 5.68,65.37 4.55,62.95 3.36,60.41 2.43,57.9 1.72,55.45 0.99,52.9 0.5,50.4 0.24,47.96 -0.34,42.56 0.16,37.45 1.5,32.72 2.96,27.57 5.4,22.87 8.49,18.74 11.88,14.22 16.07,10.38 20.6,7.39 25.33,4.27 30.44,2.07 35.42,0.97 c 1.15,-0.25 2.45,-0.46 3.84,-0.61 1.4,-0.13 2.88,-0.22 4.4,-0.27 z m -2.4,99.87 H 42.3 V 5.76 c -6.56,5.89 -11.52,12.16 -14.85,18.9 -3.4,6.88 -5.11,14.24 -5.13,22.15 -0.01,7.68 1.56,15.92 4.72,24.77 3.16,8.83 7.9,18.27 14.22,28.38 z m 4.59,0 h 1.29 C 53.1,90.47 57.76,81.48 60.98,72.93 64.22,64.36 66.02,56.25 66.24,48.57 66.47,40.51 64.96,32.88 61.55,25.66 58.2,18.57 53.01,11.86 45.85,5.48 Z" />
  <rect x="35.935265" y="102.36823" width="16.785553" height="5.2011542" fill="#ffffff" />
  <rect x="36.888439" y="115.20116" width="14.894223" height="5.2011566" fill="#ffffff" />
  <rect x="48.228909" y="117.49886" width="2.1277459" height="0.70924866" fill="#ffffff" />
</svg>
