<svg xmlns="http://www.w3.org/2000/svg" width="22.524px" height="27px" viewBox="0 0 478.874 478.873">
  <g>
    <path
      d="m 463.2128,259.90491 -133.38,-52.861 v -121.241001 -31.402 c 0,-4.338 -3.519,-7.851 -7.851,-7.851 -4.33199,0 -7.851,3.513 -7.851,7.851 v 31.402 h -11.569 c -9.012,-45.516 -35.56099,-78.5030005 -66.933,-78.5030005 -31.37,0 -57.91899,32.9870005 -66.938,78.5030005 h -19.41599 v -31.402 c 0,-4.338 -3.51902,-7.851 -7.851,-7.851 -4.332,0 -7.85,3.513 -7.85,7.851 v 31.402 43.460001 L 24.573799,86.062909 c -6.987,-2.771 -14.597,-0.112 -16.99,5.933 -2.395,6.045 1.327,13.187001 8.312,15.961001 l 117.678001,46.639 v 80.363 23.551 c 0,4.341 3.518,7.851 7.84999,7.851 4.33198,0 7.851,-3.51 7.851,-7.851 v -23.55 h 48.09998 c 7.64,25.239 14.70301,58.196 14.70301,94.207 v 78.502 h 7.851 v 39.528 c 0,8.079 7.027,14.644 15.70098,14.644 8.67402,0 15.69901,-6.564 15.69901,-14.644 v -39.528 h 7.85101 v -78.502 c 0,-35.618 6.98399,-68.655 14.606,-94.207 h 40.34699 v 23.551 c 0,4.341 3.519,7.851 7.851,7.851 4.33199,0 7.851,-3.51 7.851,-7.851 v -23.551 -2.583 l 124.70299,49.425 c 6.981,2.773 14.596,0.121 16.98701,-5.935 2.391,-6.055 -1.327,-13.184 -8.31197,-15.962 z m -149.08101,-158.401 v 99.322 l -24.132,-9.567 c 9.91001,-19.424 15.87701,-44.248 15.87701,-71.307 0,-6.297 -0.409,-12.435 -1.02999,-18.448 z m -164.857,0 h 17.13201 c -0.62102,6.014 -1.023,12.151 -1.023,18.448 0,7.694 0.48599,15.207 1.40601,22.468 l -17.515,-6.939 z m 0,117.754 v -58.436 l 23.53601,9.327 c 1.775,5.688 3.829,11.093 6.155,16.186 l -0.433,-0.148 c 0,0 6.476,12.457 13.74001,33.071 z m 129.55601,0 c 0.74901,-2.18 1.47899,-4.208 2.22001,-6.215 l 15.68201,6.215 z"
      style="fill:#ffffff;fill-opacity:1;stroke:#000000;stroke-width:9.20096;stroke-dasharray:none;stroke-opacity:1" />
    <path
      d="m 269.83296,415.5189 c -4.328,0 -7.851,2.93645 -7.851,6.55233 v 45.86965 c 0,3.61589 3.522,6.55317 7.851,6.55317 4.332,0 7.85,-2.93728 7.85,-6.55317 v -45.86965 c -10e-4,-3.61672 -3.518,-6.55233 -7.85,-6.55233 z"
      style="fill:#ffffff;fill-opacity:1;stroke:#000000;stroke-width:7.0191;stroke-dasharray:none;stroke-opacity:1" />
  </g>
</svg>
